<svg width="560" height="420" viewBox="0 0 560 420" fill="none" xmlns="http://www.w3.org/2000/svg">
  <rect x="94" y="39" width="372" height="310" rx="42" fill="#F0FDFA"/>
  <circle cx="438" cy="84" r="5" fill="#FEC84B"/>
  <circle cx="110" cy="139" r="4" fill="#67E8F9"/>
  <path d="M398 92l12 24 27 4-20 19 5 27-24-13-24 13 5-27-20-19 27-4 12-24z" fill="#FFF7D6" stroke="#FBBF24" stroke-width="5" stroke-linejoin="round"/>
  <rect x="186" y="69" width="188" height="269" rx="34" fill="#234875"/>
  <rect x="202" y="88" width="156" height="226" rx="22" fill="#E6FFFB"/>
  <rect x="249" y="82" width="63" height="8" rx="4" fill="#102A43" opacity=".55"/>
  <path d="M114 133l44-15-10 40-13-14-17 21-12-10 18-20-10-2z" fill="#1F456D"/>
  <path d="M97 127l50-17 6 11-50 17-6-11z" fill="#183B5B"/>
  <path d="M121 139l9 31" stroke="#F59E0B" stroke-width="4" stroke-linecap="round"/>
  <rect x="330" y="121" width="62" height="32" rx="16" fill="#99F6E4"/>
  <path d="M346 137h30" stroke="white" stroke-width="5" stroke-linecap="round"/>
  <rect x="219" y="172" width="52" height="38" rx="14" fill="#BAE6FD"/>
  <path d="M234 188h22M234 197h14" stroke="white" stroke-width="4" stroke-linecap="round"/>
  <rect x="320" y="203" width="85" height="60" rx="14" fill="#FEF3C7"/>
  <path d="M338 224h42M338 239h30" stroke="white" stroke-width="5" stroke-linecap="round"/>
  <path d="M171 313c-36 0-64-28-64-64 0-35 28-64 64-64" stroke="#A7F3D0" stroke-width="8" stroke-linecap="round" stroke-dasharray="2 18"/>
  <path d="M84 314c16-47 42-68 71-72-13 27-36 51-71 72z" fill="#5EEAD4"/>
  <path d="M97 261c15 21 15 43 2 66-19-20-20-43-2-66z" fill="#99F6E4"/>
  <path d="M126 278c16 10 24 26 24 48-23-7-34-23-24-48z" fill="#2DD4BF"/>
  <rect x="62" y="322" width="92" height="18" rx="9" fill="#E0F2FE"/>
  <rect x="74" y="337" width="67" height="28" rx="9" fill="#BAE6FD"/>
  <path d="M113 366h88" stroke="#BAE6FD" stroke-width="8" stroke-linecap="round"/>
  <path d="M368 337h72" stroke="#F97316" stroke-width="8" stroke-linecap="round"/>
  <rect x="354" y="313" width="90" height="20" rx="6" fill="#FDE68A" stroke="#F97316" stroke-width="3"/>
  <rect x="342" y="335" width="100" height="22" rx="6" fill="#E0F2FE" stroke="#38BDF8" stroke-width="3"/>
  <rect x="355" y="357" width="84" height="18" rx="6" fill="#FEF3C7" stroke="#F97316" stroke-width="3"/>
  <path d="M232 155c0 32-25 58-55 58s-55-26-55-58 25-58 55-58 55 26 55 58z" fill="#14B8A6"/>
  <circle cx="179" cy="125" r="31" fill="#FFD6A5"/>
  <path d="M147 122c2-26 18-41 43-38 25 4 35 23 30 50-12-22-30-26-53-18-5 2-11 4-20 6z" fill="#102A43"/>
  <path d="M165 137c9 10 20 12 31 1" stroke="#102A43" stroke-width="4" stroke-linecap="round"/>
  <path d="M147 213c-30 22-51 55-58 98h153c-7-43-31-76-95-98z" fill="#0F766E"/>
  <path d="M229 211c35 16 65 23 96 22" stroke="#FFD6A5" stroke-width="19" stroke-linecap="round"/>
  <path d="M330 235c24-3 41-14 52-32" stroke="#FFD6A5" stroke-width="19" stroke-linecap="round"/>
  <path d="M227 209c-2 25-12 42-33 53" stroke="#0F766E" stroke-width="23" stroke-linecap="round"/>
  <circle cx="384" cy="175" r="35" fill="#512B58"/>
  <circle cx="385" cy="180" r="29" fill="#FFD6A5"/>
  <path d="M354 181c1-39 25-55 57-47 31 9 40 42 24 70-6-29-19-45-42-47-19-1-31 7-39 24z" fill="#512B58"/>
  <path d="M370 199c11 9 24 8 35-1" stroke="#512B58" stroke-width="4" stroke-linecap="round"/>
  <path d="M337 303c5-50 27-83 66-98 39 16 60 48 66 98H337z" fill="#FBBF24"/>
  <rect x="381" y="230" width="79" height="73" rx="10" fill="#EEF2FF" stroke="#CBD5E1" stroke-width="4"/>
  <path d="M396 249h47M396 267h31" stroke="#94A3B8" stroke-width="5" stroke-linecap="round"/>
  <path d="M309 252c30 8 54 4 73-14" stroke="#FFD6A5" stroke-width="16" stroke-linecap="round"/>
  <path d="M251 252c22 14 44 17 66 3" stroke="#FFD6A5" stroke-width="16" stroke-linecap="round"/>
  <circle cx="265" cy="253" r="14" fill="#FFD6A5"/>
  <circle cx="318" cy="253" r="14" fill="#FFD6A5"/>
  <path d="M110 88c28-12 56-12 84 0v18c-26-7-53-7-84 0V88z" fill="#FEF3C7" stroke="#FBBF24" stroke-width="3"/>
  <path d="M423 256h54" stroke="#5EEAD4" stroke-width="12" stroke-linecap="round"/>
  <path d="M436 273h30" stroke="#5EEAD4" stroke-width="8" stroke-linecap="round"/>
  <circle cx="464" cy="149" r="4" fill="#2DD4BF"/>
  <circle cx="342" cy="57" r="4" fill="#F59E0B"/>
  <path d="M464 92l4 8 8 4-8 4-4 8-4-8-8-4 8-4 4-8z" fill="#FBBF24"/>
</svg>
